<svg xmlns="http://www.w3.org/2000/svg" width="328" height="328" viewBox="0 0 328 328" fill="none"><rect width="328" height="328" rx="30" fill="#2681E9"></rect><path fill-rule="evenodd" clip-rule="evenodd" d="M126.586 54.7425C148.644 37.7525 179.356 37.7525 201.414 54.7425C205.882 58.1841 208.82 63.159 210.751 68.4596L290 286H239.871C212.774 222.966 172.92 193.522 125.404 177.136L88.1343 285.984C88.1321 285.989 88.1299 285.995 88.1277 286H38L81.4779 166.649L38 158.171L84.5686 158.165L117.249 68.4596C119.18 63.159 122.118 58.1841 126.586 54.7425ZM171.067 88.6155C168.524 81.3219 158.204 81.3504 155.702 88.6579L131.902 158.159C131.902 158.159 163.323 161.009 199.701 170.762C178.903 113.182 171.067 88.6155 171.067 88.6155Z" fill="#E9E9E9"></path></svg>