<svg width="42" height="42" viewBox="0 0 42 42" fill="none" xmlns="http://www.w3.org/2000/svg">
<path d="M20.5186 6.75C26.662 6.75 32.0381 11.8323 32.0381 19.4551C32.0378 28.1955 23.1251 34.0109 20.9795 35.2842C20.6924 35.4545 20.3457 35.4544 20.0586 35.2842C17.9131 34.011 9.00027 28.1956 9 19.4551C9 11.8324 14.581 6.75014 20.5186 6.75ZM20.5186 13.9492C18.1331 13.9494 16.1994 15.8832 16.1992 18.2686C16.1992 20.6541 18.133 22.5887 20.5186 22.5889C22.9042 22.5889 24.8389 20.6542 24.8389 18.2686C24.8387 15.8831 22.9041 13.9492 20.5186 13.9492Z" fill="#E9E9E9"/>
</svg>
