<svg width="32" height="32" viewBox="0 0 32 32" fill="none" xmlns="http://www.w3.org/2000/svg">
<path fill-rule="evenodd" clip-rule="evenodd" d="M20.9134 5.10859C22.08 3.75661 22.8663 1.87357 22.6511 0C20.9701 0.064 18.9364 1.07383 17.731 2.42422C16.6486 3.6226 15.7038 5.53743 15.9578 7.37422C17.8329 7.5134 19.7469 6.46216 20.9134 5.10859ZM25.1184 17C25.1653 21.8431 29.5515 23.4542 29.6 23.475C29.5644 23.5886 28.8995 25.7706 27.2896 28.0266C25.8966 29.9753 24.4518 31.9162 22.1754 31.9578C19.9395 31.9978 19.2195 30.6875 16.6616 30.6875C14.1053 30.6875 13.306 31.9161 11.1898 31.9977C8.99265 32.0761 7.31811 29.8892 5.91538 27.9469C3.0452 23.9741 0.852929 16.7201 3.79753 11.8242C5.26013 9.39385 7.87305 7.85246 10.7109 7.81406C12.8676 7.77406 14.9045 9.20469 16.2231 9.20469C17.5417 9.20469 20.0171 7.4847 22.6187 7.7375C23.7076 7.7807 26.7654 8.15817 28.728 10.9117C28.5694 11.0061 25.0796 12.9521 25.1184 17Z" fill="#E9E9E9"/>
</svg>
