<svg width="76" height="76" viewBox="0 0 76 76" fill="none" xmlns="http://www.w3.org/2000/svg">
<path d="M24.8199 6.43509C32.2398 -0.984873 44.27 -0.984873 51.6899 6.43509L70.0747 24.8199C77.4947 32.2398 77.4947 44.27 70.0747 51.6899L51.6899 70.0747C44.27 77.4947 32.2398 77.4947 24.8199 70.0747L6.43509 51.6899C-0.984873 44.27 -0.984873 32.2398 6.43509 24.8199L24.8199 6.43509Z" fill="#FF8E32"/>
<path d="M18.8054 23.528L24.1311 18.2023C26.0838 16.2497 29.2496 16.2497 31.2022 18.2023L33.4645 20.4645C35.4171 22.4172 35.4171 25.583 33.4645 27.5356L30.8582 30.1418C30.3161 30.684 30.0512 31.4441 30.1391 32.2058L30.1905 32.6514C30.9515 39.246 36.2703 44.3817 42.8875 44.9111C43.5933 44.9675 44.2885 44.7116 44.7892 44.2109L47.4645 41.5356C49.4171 39.583 52.5829 39.583 54.5355 41.5356L56.7978 43.7979C58.7504 45.7505 58.7504 48.9163 56.7978 50.8689L51.4721 56.1946C49.7709 57.8958 47.2221 58.4135 45.0756 57.3271C41.0875 55.3085 34.4879 51.4879 29 46C23.5121 40.5121 19.6915 33.9126 17.673 29.9245C16.5865 27.778 17.1043 25.2291 18.8054 23.528Z" fill="#E9E9E9"/>
</svg>
