<svg width="76" height="76" viewBox="0 0 76 76" fill="none" xmlns="http://www.w3.org/2000/svg">
<path d="M24.8199 6.43509C32.2398 -0.984873 44.27 -0.984873 51.6899 6.43509L70.0747 24.8199C77.4947 32.2398 77.4947 44.27 70.0747 51.6899L51.6899 70.0747C44.27 77.4947 32.2398 77.4947 24.8199 70.0747L6.43509 51.6899C-0.984873 44.27 -0.984873 32.2398 6.43509 24.8199L24.8199 6.43509Z" fill="#FF8E32"/>
<path d="M38 20.8643C46.1912 20.8643 53.3583 27.64 53.3584 37.8037C53.3584 49.6849 41.0072 57.5125 38.457 59.002C38.1688 59.1701 37.8312 59.1701 37.543 59.002C34.9928 57.5125 22.6416 49.6849 22.6416 37.8037C22.6417 27.64 30.0832 20.8643 38 20.8643ZM38 30.4629C34.8192 30.4629 32.2403 33.0419 32.2402 36.2227C32.2402 39.4035 34.8191 41.9824 38 41.9824C41.1809 41.9824 43.7598 39.4035 43.7598 36.2227C43.7597 33.0419 41.1808 30.4629 38 30.4629Z" fill="#E9E9E9"/>
</svg>
