<svg width="76" height="76" viewBox="0 0 76 76" fill="none" xmlns="http://www.w3.org/2000/svg">
<path d="M24.8199 6.43509C32.2398 -0.984873 44.27 -0.984873 51.6899 6.43509L70.0747 24.8199C77.4947 32.2398 77.4947 44.27 70.0747 51.6899L51.6899 70.0747C44.27 77.4947 32.2398 77.4947 24.8199 70.0747L6.43509 51.6899C-0.984873 44.27 -0.984873 32.2398 6.43509 24.8199L24.8199 6.43509Z" fill="#FF8E32"/>
<path d="M53 21.667C55.8281 21.667 57.2424 21.6666 58.1211 22.5449C58.9998 23.4236 59 24.8386 59 27.667V48.333C59 51.1614 58.9998 52.5764 58.1211 53.4551C57.2424 54.3334 55.8281 54.333 53 54.333H23C20.1719 54.333 18.7576 54.3334 17.8789 53.4551C17.0002 52.5764 17 51.1614 17 48.333V27.667C17 24.8386 17.0002 23.4236 17.8789 22.5449C18.7576 21.6666 20.1719 21.667 23 21.667H53ZM53.248 30.168C52.7885 29.4787 51.8573 29.2924 51.168 29.752L38 38.5303L24.832 29.752C24.1427 29.2924 23.2115 29.4787 22.752 30.168C22.2924 30.8573 22.4787 31.7885 23.168 32.248L36.6133 41.2119C37.453 41.7716 38.547 41.7716 39.3867 41.2119L52.832 32.248C53.5213 31.7885 53.7076 30.8573 53.248 30.168Z" fill="#E9E9E9"/>
</svg>
