<svg width="42" height="42" viewBox="0 0 42 42" fill="none" xmlns="http://www.w3.org/2000/svg">
<path d="M30.75 8.75C33.5784 8.75 34.9924 8.75023 35.8711 9.62891C36.7498 10.5076 36.75 11.9216 36.75 14.75V27.25C36.75 30.0784 36.7498 31.4924 35.8711 32.3711C34.9924 33.2498 33.5784 33.25 30.75 33.25H11.25C8.42157 33.25 7.00759 33.2498 6.12891 32.3711C5.25023 31.4924 5.25 30.0784 5.25 27.25V14.75C5.25 11.9216 5.25023 10.5076 6.12891 9.62891C7.00759 8.75023 8.42157 8.75 11.25 8.75H30.75ZM32.748 14.918C32.2885 14.2287 31.3573 14.0424 30.668 14.502L21 20.9463L11.332 14.502C10.6427 14.0424 9.71148 14.2287 9.25195 14.918C8.79242 15.6073 8.97868 16.5385 9.66797 16.998L19.6133 23.6279C20.453 24.1878 21.547 24.1878 22.3867 23.6279L32.332 16.998C33.0213 16.5385 33.2076 15.6073 32.748 14.918Z" fill="#E9E9E9"/>
</svg>
