<svg width="91" height="91" viewBox="0 0 91 91" fill="none" xmlns="http://www.w3.org/2000/svg">
<rect x="45.2548" width="64" height="64" rx="19" transform="rotate(45 45.2548 0)" fill="#FF8E32"/>
<circle cx="45" cy="37" r="9.33333" fill="#E9E9E9"/>
<circle cx="56.6667" cy="37" r="7" fill="#E9E9E9"/>
<circle cx="33.3333" cy="37" r="7" fill="#E9E9E9"/>
<path d="M56.6671 46.333C63.2908 46.3333 65.3097 54.0084 65.8361 56.9082C65.9417 57.4903 65.4863 58 64.8947 58H57.9913C57.0508 54.4774 55.2328 50.4816 51.715 48.1992C52.98 47.0819 54.5991 46.333 56.6671 46.333Z" fill="#E9E9E9"/>
<path d="M33.3338 46.333C35.4019 46.3331 37.021 47.0817 38.2859 48.1992C34.7678 50.4816 32.9492 54.4772 32.0086 58H25.1053C24.5137 58 24.0582 57.4903 24.1639 56.9082C24.6902 54.0084 26.7099 46.333 33.3338 46.333Z" fill="#E9E9E9"/>
<path d="M45 48.6666C54.7658 48.6666 56.3569 58.4761 56.6162 61.6727C56.6609 62.2232 56.219 62.6666 55.6667 62.6666H34.3333C33.7811 62.6666 33.3392 62.2232 33.3838 61.6727C33.6431 58.4761 35.2343 48.6666 45 48.6666Z" fill="#E9E9E9"/>
</svg>
