<svg width="91" height="91" viewBox="0 0 91 91" fill="none" xmlns="http://www.w3.org/2000/svg">
<rect x="45.2548" width="64" height="64" rx="19" transform="rotate(45 45.2548 0)" fill="#FF8E32"/>
<circle cx="53.5" cy="54.5" r="3.5" fill="#E9E9E9" stroke="#E9E9E9" stroke-width="2" stroke-linecap="round"/>
<circle cx="29.5" cy="38.5" r="2.5" fill="#E9E9E9" stroke="#E9E9E9" stroke-width="2" stroke-linecap="round"/>
<circle cx="53.5" cy="56.5" r="10.5" stroke="#E9E9E9" stroke-width="2"/>
<ellipse cx="29.5" cy="40" rx="9.5" ry="9" stroke="#E9E9E9" stroke-width="2"/>
<circle cx="52.5" cy="27.5" r="5.5" stroke="#E9E9E9" stroke-width="2"/>
<path d="M60.6815 64.3951C60.8631 64.304 60.9492 64.0906 60.8653 63.9056C60.376 62.8264 59.4587 61.8766 58.2267 61.1808C56.8707 60.4151 55.2092 60 53.5 60C51.7907 60 50.1292 60.4151 48.7732 61.1808C47.5412 61.8766 46.6239 62.8264 46.1346 63.9056C46.0507 64.0905 46.1368 64.304 46.3184 64.3951C50.8374 66.6635 56.1625 66.6635 60.6815 64.3951Z" fill="#E9E9E9"/>
<path d="M34.8566 47.8659C34.9429 47.805 34.9829 47.6969 34.9537 47.5954C34.5808 46.2982 33.8212 45.1542 32.7814 44.3284C31.6965 43.467 30.3674 43 29 43C27.6326 43 26.3034 43.467 25.2185 44.3284C24.1787 45.1542 23.4191 46.2982 23.0462 47.5954C23.017 47.6969 23.057 47.805 23.1433 47.8659C26.6544 50.3443 31.3455 50.3443 34.8566 47.8659Z" fill="#E9E9E9"/>
<path d="M45 51L38 45" stroke="#E9E9E9" stroke-width="2"/>
<path d="M37.5999 35.4253L48.5999 29.6" stroke="#E9E9E9" stroke-width="2"/>
</svg>
