<svg width="32" height="32" viewBox="0 0 32 32" fill="none" xmlns="http://www.w3.org/2000/svg">
<path d="M1.19116 2.03566V29.9629C1.19135 30.0235 1.20959 30.0827 1.2436 30.133C1.2776 30.1834 1.32586 30.2227 1.38232 30.246C1.43877 30.2693 1.50092 30.2755 1.56095 30.264C1.62099 30.2524 1.67625 30.2236 1.7198 30.181L16.3976 16L1.7198 1.8175C1.67625 1.77496 1.62099 1.74611 1.56095 1.73456C1.50092 1.723 1.43877 1.72927 1.38232 1.75257C1.32586 1.77587 1.2776 1.81516 1.2436 1.86552C1.20959 1.91588 1.19135 1.97507 1.19116 2.03566Z" fill="#E9E9E9"/>
<path d="M22.5518 10.173L4.14772 0.127723L4.13624 0.121327C3.8192 -0.0492209 3.51794 0.375728 3.7776 0.623022L18.2043 14.2896L22.5518 10.173Z" fill="#E9E9E9"/>
<path d="M3.77917 31.377C3.51808 31.6243 3.81934 32.0492 4.13782 31.8787L4.14929 31.8723L22.5519 21.827L18.2045 17.709L3.77917 31.377Z" fill="#E9E9E9"/>
<path d="M29.9816 14.2235L24.8422 11.4194L20.0099 16L24.8422 20.5785L29.9816 17.7766C31.3796 17.0112 31.3796 14.9888 29.9816 14.2235Z" fill="#E9E9E9"/>
</svg>
