<svg width="66" height="66" viewBox="0 0 66 66" fill="none" xmlns="http://www.w3.org/2000/svg">
<rect width="66" height="66" rx="10" fill="#2681E9"/>
<path fill-rule="evenodd" clip-rule="evenodd" d="M25.9281 11.5589C30.3922 8.14702 36.6078 8.14702 41.0719 11.5589C41.9762 12.2501 42.5708 13.2491 42.9616 14.3136L59 58H48.8548C43.371 45.3416 35.3053 39.4286 25.689 36.1379L18.1462 57.9968C18.1458 57.9979 18.1453 57.999 18.1449 58H8L16.7991 34.0319L8 32.3295L17.4246 32.3281L24.0384 14.3136C24.4292 13.2491 25.0238 12.2501 25.9281 11.5589ZM34.9301 18.3613C34.4155 16.8966 32.3271 16.9023 31.8206 18.3698L27.004 32.3271C27.004 32.3271 33.3629 32.8994 40.7252 34.8579C36.5161 23.2947 34.9301 18.3613 34.9301 18.3613Z" fill="#E9E9E9"/>
</svg>
