<svg width="66" height="66" viewBox="0 0 66 66" fill="none" xmlns="http://www.w3.org/2000/svg">
<rect width="66" height="66" rx="10" fill="#E9E9E9"/>
<path fill-rule="evenodd" clip-rule="evenodd" d="M24.9281 10.6112C29.3922 7.12961 35.6078 7.12961 40.0719 10.6112C40.9762 11.3164 41.5708 12.3359 41.9616 13.422L58 58H47.8548C42.371 45.0832 34.3053 39.0496 24.689 35.6918L17.1462 57.9967C17.1458 57.9978 17.1453 57.9989 17.1449 58H7L15.7991 33.5428L7 31.8056L16.4246 31.8042L23.0384 13.422C23.4292 12.3359 24.0238 11.3164 24.9281 10.6112ZM33.9301 17.5524C33.4155 16.0578 31.3271 16.0636 30.8206 17.561L26.004 31.8031C26.004 31.8031 32.3629 32.3871 39.7252 34.3856C35.5161 22.5865 33.9301 17.5524 33.9301 17.5524Z" fill="#2681E9"/>
</svg>
