<svg width="42" height="43" viewBox="0 0 42 43" fill="none" xmlns="http://www.w3.org/2000/svg">
<path d="M7.2128 9.76444L9.67312 7.24554C11.6348 5.23714 14.8706 5.24273 16.8323 7.25113C18.7298 9.1938 18.735 12.3012 16.8376 14.2439L15.6397 15.4702C15.2349 15.8847 15.0376 16.4592 15.1025 17.0349L15.1668 17.605C15.7235 22.5447 19.6981 26.3999 24.6525 26.8057C25.1893 26.8497 25.7178 26.6522 26.0941 26.2669L27.1731 25.1622C29.1348 23.1538 32.3706 23.1594 34.3323 25.1678C36.2298 27.1105 36.235 30.2179 34.3376 32.1605L31.8329 34.7248C30.1213 36.4771 27.517 37.0108 25.3652 35.8405C22.3454 34.1982 17.9592 31.4404 14.25 27.643C10.4587 23.7614 7.72845 19.1556 6.13814 16.0599C5.05858 13.9584 5.56199 11.4546 7.2128 9.76444Z" fill="#E9E9E9"/>
</svg>
